<svg xmlns="http://www.w3.org/2000/svg" viewBox="0 0 1387 892">
	<style>
		.shp0 { fill: #603813 } 
		.shp1 { fill: #a67c52 } 
		.shp2 { fill: #ffffff } 
	</style>
	<g>
		<path id="Path 1" class="shp0" d="M1066.67 644.91C1066.67 781.38 899.56 892 693.42 892C487.28 892 320.17 781.38 320.17 644.91C320.17 508.45 487.28 397.82 693.42 397.82C899.56 397.82 1066.67 508.45 1066.67 644.91Z" />
		<path id="Path 2" class="shp1" d="M1350.25 623.04C1329.04 617.6 1300.91 614.61 1271.03 614.61C1241.16 614.61 1213.03 617.6 1191.82 623.04C1178.53 626.44 1169.05 630.46 1163.03 635.27C1131.23 630.71 1098.46 619.6 1091.53 585.52C1089.99 577.94 1086.21 572.38 1080.67 569.07C1074.91 564.15 1067.46 561.16 1059.32 561.16L693.42 561.16L327.52 561.16C319.38 561.16 311.92 564.15 306.17 569.07C300.63 572.38 296.85 577.94 295.31 585.52C288.38 619.6 255.61 630.71 223.8 635.27C217.79 630.46 208.31 626.44 195.02 623.04C173.81 617.6 145.68 614.61 115.8 614.61C85.93 614.61 57.8 617.6 36.59 623.04C12.97 629.09 1.26 637.07 0 648.03C1.26 658.99 12.97 666.97 36.59 673.02C57.8 678.46 85.93 681.45 115.8 681.45C145.68 681.45 173.81 678.46 195.02 673.02C208.31 669.62 217.79 665.6 223.8 660.79C255.61 665.35 288.38 676.46 295.31 710.54C296.85 718.12 300.63 723.68 306.17 726.99C311.92 731.91 319.38 734.9 327.52 734.9L693.42 734.9L1059.32 734.9C1067.46 734.9 1074.91 731.91 1080.67 726.99C1086.21 723.68 1089.99 718.12 1091.53 710.54C1098.46 676.46 1131.23 665.35 1163.03 660.79C1169.05 665.6 1178.53 669.62 1191.82 673.02C1213.03 678.46 1241.16 681.45 1271.03 681.45C1300.91 681.45 1329.04 678.46 1350.25 673.02C1373.87 666.97 1385.58 658.99 1386.84 648.03C1385.58 637.07 1373.87 629.09 1350.25 623.04Z" />
		<path id="Path 3" class="shp2" d="M983.5 295.53C1001.14 281.95 1010.08 272.14 1013.93 263.82C1023.14 243.97 1023.53 231.84 1016.07 210.52C1014.52 206.11 1005 198.6 1001.29 195.77C1000.51 195.17 999.63 194.69 998.71 194.31C993.25 217.9 978.98 239.56 958.65 252.81C971.39 234.19 985.75 206.41 985.15 183.86C984.45 157.56 979.81 141.21 958.49 118.82C938.82 98.17 903.81 94.18 895.59 93.24C869.9 90.27 855.44 90.89 839.65 102.12C837.11 114.17 832.35 126.39 825.22 138.01C829.48 122.02 831.62 103.9 825.22 76.18C812.85 22.58 751.09 16.04 693.45 17.76L693.45 17.77C693.44 17.77 693.43 17.76 693.42 17.76C693.41 17.76 693.4 17.77 693.39 17.77L693.39 17.76C635.75 16.04 573.99 22.58 561.62 76.18C555.22 103.9 557.36 122.02 561.62 138.01C554.49 126.39 549.73 114.17 547.19 102.12C531.4 90.89 516.94 90.27 491.25 93.24C483.03 94.18 448.02 98.17 428.35 118.82C407.02 141.21 402.39 157.56 401.69 183.86C401.09 206.41 415.45 234.19 428.19 252.81C407.86 239.56 393.58 217.9 388.13 194.31C387.21 194.69 386.33 195.17 385.55 195.77C381.84 198.6 372.31 206.11 370.77 210.52C363.31 231.84 363.7 243.97 372.91 263.82C376.76 272.14 385.7 281.95 403.34 295.53C392.78 292.11 377.45 284.69 367.67 274.45C364.08 279.46 356.22 285.46 365.44 311.8C371.95 330.39 393.16 353.38 414.49 358.71C429.68 362.51 453.71 364.54 469.19 366.92C469.76 367.01 470.35 367.11 470.95 367.23L475.55 362.53C480.87 333.8 432.24 314.81 411.06 304.16C427.28 306.47 442.47 312.9 461.4 322.46C470.33 326.97 478.46 324.6 476.33 311.8C475.26 303.27 452.87 285.15 440.08 269.16C454.87 278.05 477.24 296.34 491.25 300.07C507.25 304.34 532.83 305.41 538.16 281.95C540.06 273.63 521.47 218.62 513.54 191.34C526.91 216.31 551.83 280.34 561.62 285.15C574.62 291.53 611.46 284.56 616 264.89C619.19 251.03 605.74 195.75 598.48 167.33C601.07 168.93 608.53 184.93 617.85 213.56C623.15 229.85 623.84 243.43 631.99 258.49C638.93 271.33 642.58 276.22 673.83 280.69C680.35 280.58 686.88 280.57 693.42 280.65C699.96 280.57 706.49 280.58 713.01 280.69C744.26 276.22 747.91 271.33 754.85 258.49C763 243.43 763.69 229.85 768.99 213.56C778.31 184.93 785.77 168.93 788.36 167.33C781.1 195.75 767.64 251.03 770.84 264.89C775.38 284.56 812.22 291.53 825.22 285.15C835.01 280.34 859.93 216.31 873.3 191.34C865.37 218.62 846.78 273.63 848.67 281.95C854.01 305.41 879.59 304.34 895.59 300.07C909.6 296.34 931.97 278.05 946.76 269.16C933.97 285.15 911.58 303.27 910.51 311.8C908.38 324.6 916.51 326.97 925.44 322.46C944.37 312.9 959.56 306.47 975.78 304.16C954.6 314.81 905.96 333.8 911.29 362.53L915.89 367.23C916.49 367.11 917.08 367.01 917.65 366.92C933.13 364.54 957.16 362.51 972.35 358.71C993.68 353.38 1014.89 330.39 1021.4 311.8C1030.62 285.46 1022.76 279.46 1019.17 274.45C1009.39 284.69 994.06 292.11 983.5 295.53ZM870.68 361.48C866.93 360.67 862.88 359.77 858.56 358.91C854.25 358.06 849.7 357.15 844.96 356.34C840.24 355.45 835.34 354.68 830.35 353.87C825.37 353.04 820.28 352.4 815.21 351.64C810.11 351 805.02 350.36 800 349.73C794.97 349.21 790.02 348.69 785.23 348.19C780.42 347.78 775.78 347.39 771.38 347.02C766.97 346.61 762.8 346.46 758.94 346.2C755.09 345.99 751.56 345.7 748.42 345.62C745.29 345.5 742.55 345.4 740.3 345.32C735.8 345.15 733.22 345.05 733.22 345.05C733.22 345.05 735.8 344.97 740.3 344.83C742.56 344.76 745.29 344.68 748.43 344.58C751.58 344.44 755.12 344.49 758.99 344.43C762.86 344.43 767.05 344.3 771.49 344.41C775.92 344.48 780.6 344.55 785.44 344.62C790.28 344.79 795.28 344.97 800.37 345.15C805.45 345.44 810.61 345.73 815.77 346.02C820.93 346.43 826.1 346.73 831.17 347.22C836.24 347.69 841.24 348.13 846.07 348.69C850.9 349.19 855.56 349.79 859.98 350.36C864.41 350.92 868.58 351.55 872.44 352.12C877.1 352.83 881.28 353.54 884.86 354.17C884.31 350.2 883.57 346.36 882.59 342.73C878.99 335.89 874.41 329.79 868.91 325.41C811.51 311.63 752.46 304.79 693.42 304.9C634.38 304.79 575.33 311.63 517.93 325.41C512.43 329.79 507.85 335.89 504.25 342.73C503.26 346.36 502.53 350.2 501.98 354.17C505.56 353.54 509.74 352.83 514.4 352.12C518.26 351.55 522.43 350.92 526.85 350.36C531.28 349.79 535.94 349.19 540.77 348.69C545.59 348.13 550.59 347.69 555.67 347.22C560.74 346.73 565.91 346.43 571.06 346.02C576.23 345.73 581.39 345.44 586.47 345.15C591.55 344.97 596.56 344.79 601.4 344.62C606.24 344.55 610.91 344.48 615.35 344.41C619.78 344.3 623.98 344.43 627.85 344.43C631.72 344.49 635.26 344.44 638.4 344.58C641.54 344.68 644.28 344.76 646.54 344.83C651.04 344.97 653.62 345.05 653.62 345.05C653.62 345.05 651.04 345.15 646.54 345.32C644.29 345.4 641.55 345.5 638.42 345.62C635.28 345.7 631.75 345.99 627.89 346.2C624.04 346.46 619.87 346.61 615.46 347.02C611.06 347.39 606.41 347.78 601.61 348.19C596.82 348.69 591.87 349.21 586.84 349.73C581.82 350.36 576.73 351 571.63 351.64C566.55 352.4 561.46 353.04 556.48 353.87C551.5 354.68 546.59 355.45 541.87 356.34C537.14 357.15 532.59 358.06 528.27 358.91C523.96 359.77 519.9 360.67 516.16 361.48C510.14 362.83 504.98 364.1 500.95 365.14C500.27 377.89 501.11 391.52 502.44 404.5L636.41 407.97L503.65 415.25C504.83 425.01 506.11 434.08 506.99 441.78C507.04 441.8 507.09 441.82 507.14 441.84C509.89 442.92 513.89 444.37 518.77 445.99C521.23 446.76 523.87 447.65 526.71 448.46C529.55 449.31 532.55 450.17 535.68 450.99C538.8 451.86 542.06 452.61 545.37 453.43C548.68 454.23 552.07 454.93 555.45 455.69C558.86 456.36 562.27 457.02 565.62 457.67C568.99 458.24 572.31 458.81 575.52 459.35C578.75 459.81 581.88 460.26 584.84 460.68C587.8 461.12 590.62 461.38 593.21 461.7C595.81 461.99 598.2 462.31 600.32 462.47C602.43 462.65 604.28 462.81 605.8 462.95C608.85 463.22 610.59 463.37 610.59 463.37C610.59 463.37 608.85 463.42 605.79 463.5C604.26 463.54 602.4 463.6 600.27 463.66C598.13 463.74 595.73 463.71 593.1 463.72C590.48 463.7 587.62 463.76 584.61 463.67C581.6 463.59 578.42 463.5 575.13 463.42C571.84 463.24 568.44 463.06 564.98 462.88C561.53 462.62 558.01 462.35 554.5 462.08C551 461.7 547.49 461.39 544.04 460.97C540.59 460.53 537.18 460.15 533.91 459.63C530.62 459.16 527.45 458.65 524.45 458.11C521.44 457.62 518.61 457.02 515.99 456.52C513.08 455.92 510.45 455.33 508.15 454.79C508.45 458.17 509 461.52 510.46 464.55C513.41 470.66 519.72 474.18 525.34 477.96C558.33 500.17 603.1 508.45 617.69 509.94C642.86 512.51 668.14 514.53 693.42 515.08C718.7 514.53 743.98 512.51 769.14 509.94C783.74 508.45 828.51 500.17 861.5 477.96C867.12 474.18 873.43 470.66 876.37 464.55C877.84 461.52 878.38 458.17 878.69 454.79C876.39 455.33 873.76 455.92 870.85 456.52C868.23 457.02 865.4 457.62 862.39 458.11C859.39 458.65 856.22 459.16 852.93 459.63C849.65 460.15 846.25 460.53 842.8 460.97C839.35 461.39 835.83 461.7 832.33 462.08C828.82 462.35 825.31 462.62 821.86 462.88C818.4 463.06 815 463.24 811.71 463.42C808.42 463.5 805.24 463.59 802.22 463.67C799.21 463.76 796.36 463.7 793.73 463.72C791.11 463.71 788.7 463.74 786.57 463.66C784.44 463.6 782.58 463.54 781.05 463.5C777.99 463.42 776.25 463.37 776.25 463.37C776.25 463.37 777.99 463.22 781.03 462.95C782.55 462.81 784.4 462.65 786.52 462.47C788.64 462.31 791.02 461.99 793.62 461.7C796.22 461.38 799.04 461.12 802 460.68C804.96 460.26 808.08 459.81 811.31 459.35C814.53 458.81 817.85 458.24 821.22 457.67C824.57 457.02 827.98 456.36 831.38 455.69C834.77 454.93 838.16 454.23 841.47 453.43C844.78 452.61 848.04 451.86 851.15 450.99C854.29 450.17 857.29 449.31 860.12 448.46C862.97 447.65 865.61 446.76 868.07 445.99C872.95 444.37 876.95 442.92 879.7 441.84C879.75 441.82 879.8 441.8 879.85 441.78C880.73 434.08 882.01 425.01 883.19 415.25L750.43 407.97L884.4 404.5C885.72 391.52 886.57 377.89 885.89 365.14C881.86 364.1 876.7 362.83 870.68 361.48Z" />
		<path id="Path 4" fill-rule="evenodd" class="shp1" d="M959.56 374.71C942.11 376.68 919.15 371.55 903.52 379.57C893.12 398.4 895.8 441.73 898.65 469.01C899.06 472.94 899.48 477.03 898.15 480.75C896.21 486.18 891.01 489.66 886.04 492.58C841.42 518.79 789.84 531.61 738.23 535.31C723.3 536.37 708.36 536.69 693.42 536.43C678.48 536.69 663.53 536.37 648.61 535.31C597 531.61 545.42 518.79 500.8 492.58C495.83 489.66 490.62 486.18 488.68 480.75C487.35 477.03 487.78 472.94 488.19 469.01C491.04 441.73 493.72 398.4 483.32 379.57C467.69 371.55 444.73 376.68 427.28 374.71C370.77 368.31 348.38 316.07 351.58 292.61C352.89 283 355.87 273.75 361.26 265.84C353.14 251.57 351.35 231.61 354.78 215.85C357.89 201.56 371.53 186.38 386.13 181.9C385.41 174.32 385.56 166.65 386.78 159.1C392.58 123.45 420.79 92.45 455.74 83.33C466.89 80.42 485.06 77.54 496.58 77.24C515.07 76.76 529.74 79.24 545.13 86.65C543.4 56.03 556.21 28.82 580.81 18.6C598.75 11.15 628.79 4.74 658.64 1.54C670.78 0.24 681.82 -0.33 693.42 0.24C705.02 -0.33 716.06 0.24 728.2 1.54C758.05 4.74 788.09 11.15 806.03 18.6C830.63 28.82 843.44 56.03 841.71 86.65C857.1 79.24 871.77 76.76 890.26 77.24C901.78 77.54 919.95 80.42 931.1 83.33C966.05 92.45 994.26 123.45 1000.06 159.1C1001.28 166.65 1001.43 174.32 1000.71 181.9C1015.31 186.38 1028.95 201.56 1032.06 215.85C1035.48 231.61 1033.7 251.57 1025.58 265.84C1030.97 273.75 1033.95 283 1035.26 292.61C1038.45 316.07 1016.07 368.31 959.56 374.71ZM885.89 365.14C881.86 364.1 876.7 362.83 870.68 361.48C866.93 360.66 862.88 359.77 858.56 358.91C854.25 358.06 849.7 357.15 844.97 356.33C840.24 355.45 835.34 354.67 830.35 353.87C825.37 353.04 820.28 352.39 815.21 351.64C810.11 351 805.02 350.36 800 349.73C794.97 349.2 790.02 348.69 785.23 348.19C780.42 347.78 775.78 347.39 771.38 347.02C766.97 346.61 762.8 346.46 758.94 346.2C755.09 345.98 751.56 345.7 748.42 345.62C745.29 345.5 742.55 345.4 740.3 345.31C735.8 345.15 733.22 345.05 733.22 345.05C733.22 345.05 735.8 344.97 740.3 344.83C742.56 344.76 745.29 344.67 748.43 344.58C751.58 344.44 755.12 344.48 758.99 344.43C762.86 344.43 767.05 344.3 771.49 344.41C775.92 344.47 780.6 344.55 785.44 344.62C790.28 344.79 795.28 344.97 800.37 345.15C805.45 345.44 810.61 345.73 815.77 346.02C820.93 346.43 826.1 346.72 831.17 347.22C836.24 347.68 841.24 348.13 846.07 348.69C850.9 349.19 855.56 349.79 859.98 350.36C864.41 350.92 868.58 351.55 872.44 352.11C877.1 352.83 881.28 353.53 884.86 354.17C884.31 350.2 883.57 346.36 882.59 342.72C878.99 335.89 874.41 329.79 868.91 325.41C811.51 311.63 752.46 304.79 693.42 304.9C634.38 304.79 575.33 311.63 517.93 325.41C512.43 329.79 507.85 335.89 504.25 342.72C503.27 346.36 502.53 350.2 501.98 354.17C505.56 353.53 509.74 352.83 514.4 352.11C518.26 351.55 522.43 350.92 526.85 350.36C531.28 349.79 535.94 349.19 540.77 348.69C545.6 348.13 550.59 347.68 555.67 347.22C560.74 346.72 565.91 346.43 571.07 346.02C576.23 345.73 581.39 345.44 586.47 345.15C591.55 344.97 596.56 344.79 601.4 344.62C606.24 344.55 610.92 344.47 615.35 344.41C619.79 344.3 623.98 344.43 627.85 344.43C631.72 344.48 635.26 344.44 638.4 344.58C641.54 344.67 644.28 344.76 646.54 344.83C651.04 344.97 653.62 345.05 653.62 345.05C653.62 345.05 651.04 345.15 646.54 345.31C644.29 345.4 641.55 345.5 638.42 345.62C635.28 345.7 631.75 345.98 627.89 346.2C624.04 346.46 619.87 346.61 615.46 347.02C611.06 347.39 606.41 347.78 601.61 348.19C596.82 348.69 591.87 349.2 586.84 349.73C581.82 350.36 576.73 351 571.63 351.64C566.55 352.39 561.46 353.04 556.48 353.87C551.5 354.67 546.6 355.45 541.87 356.33C537.14 357.15 532.59 358.06 528.28 358.91C523.96 359.77 519.9 360.66 516.16 361.48C510.14 362.83 504.98 364.1 500.95 365.14C500.27 377.89 501.11 391.52 502.44 404.5L636.41 407.97L503.65 415.25C504.83 425 506.11 434.08 506.99 441.78C507.04 441.8 507.09 441.82 507.14 441.84C509.89 442.92 513.89 444.37 518.77 445.99C521.23 446.76 523.87 447.65 526.72 448.46C529.55 449.31 532.55 450.17 535.68 450.98C538.8 451.86 542.06 452.61 545.37 453.43C548.68 454.23 552.07 454.93 555.45 455.69C558.86 456.35 562.27 457.02 565.62 457.67C568.99 458.24 572.31 458.81 575.52 459.35C578.75 459.81 581.88 460.26 584.84 460.68C587.8 461.12 590.62 461.38 593.22 461.7C595.81 461.99 598.2 462.31 600.32 462.46C602.44 462.65 604.28 462.81 605.8 462.95C608.85 463.21 610.59 463.37 610.59 463.37C610.59 463.37 608.85 463.42 605.79 463.5C604.26 463.54 602.4 463.59 600.27 463.65C598.14 463.74 595.73 463.7 593.1 463.71C590.48 463.69 587.62 463.76 584.61 463.67C581.6 463.59 578.42 463.5 575.13 463.41C571.84 463.24 568.44 463.06 564.98 462.88C561.53 462.61 558.02 462.34 554.51 462.07C551 461.7 547.49 461.39 544.04 460.97C540.59 460.52 537.18 460.15 533.91 459.63C530.62 459.16 527.45 458.65 524.45 458.11C521.44 457.62 518.61 457.02 515.99 456.52C513.08 455.92 510.45 455.33 508.15 454.79C508.46 458.16 509 461.52 510.47 464.55C513.41 470.66 519.72 474.18 525.34 477.96C558.33 500.17 603.1 508.45 617.69 509.94C642.86 512.51 668.14 514.53 693.42 515.08C718.7 514.53 743.98 512.51 769.14 509.94C783.74 508.45 828.51 500.17 861.5 477.96C867.12 474.18 873.43 470.66 876.37 464.55C877.84 461.52 878.38 458.16 878.69 454.79C876.39 455.33 873.76 455.92 870.85 456.52C868.23 457.02 865.4 457.62 862.39 458.11C859.39 458.65 856.22 459.16 852.93 459.63C849.65 460.15 846.25 460.52 842.8 460.97C839.35 461.39 835.84 461.7 832.33 462.07C828.82 462.34 825.31 462.61 821.86 462.88C818.4 463.06 815 463.24 811.71 463.41C808.42 463.5 805.24 463.59 802.23 463.67C799.21 463.76 796.36 463.69 793.74 463.71C791.11 463.7 788.7 463.74 786.57 463.65C784.44 463.59 782.58 463.54 781.05 463.5C777.99 463.42 776.25 463.37 776.25 463.37C776.25 463.37 777.99 463.21 781.03 462.95C782.56 462.81 784.4 462.65 786.52 462.46C788.64 462.31 791.02 461.99 793.62 461.7C796.22 461.38 799.04 461.12 802 460.68C804.96 460.26 808.08 459.81 811.31 459.35C814.53 458.81 817.85 458.24 821.22 457.67C824.57 457.02 827.98 456.35 831.38 455.69C834.77 454.93 838.16 454.23 841.47 453.43C844.78 452.61 848.04 451.86 851.16 450.98C854.29 450.17 857.29 449.31 860.12 448.46C862.97 447.65 865.61 446.76 868.07 445.99C872.95 444.37 876.95 442.92 879.7 441.84C879.75 441.82 879.8 441.8 879.85 441.78C880.73 434.08 882.01 425 883.19 415.25L750.43 407.97L884.4 404.5C885.73 391.52 886.57 377.89 885.89 365.14ZM1019.16 274.45C1009.39 284.69 994.06 292.11 983.5 295.53C1001.14 281.95 1010.08 272.14 1013.93 263.82C1023.14 243.97 1023.53 231.84 1016.07 210.51C1014.52 206.11 1005 198.6 1001.29 195.77C1000.51 195.17 999.63 194.69 998.71 194.31C993.25 217.9 978.98 239.56 958.65 252.81C971.39 234.19 985.74 206.41 985.15 183.86C984.45 157.56 979.81 141.21 958.49 118.82C938.82 98.16 903.81 94.18 895.59 93.23C869.9 90.27 855.44 90.89 839.65 102.12C837.11 114.17 832.35 126.39 825.22 138.01C829.48 122.02 831.62 103.9 825.22 76.18C812.85 22.58 751.09 16.04 693.45 17.76L693.45 17.76C693.44 17.76 693.43 17.76 693.42 17.76C693.41 17.76 693.4 17.76 693.39 17.76L693.39 17.76C635.75 16.04 573.99 22.58 561.62 76.18C555.22 103.9 557.36 122.02 561.62 138.01C554.49 126.39 549.73 114.17 547.19 102.12C531.4 90.89 516.94 90.27 491.25 93.23C483.03 94.18 448.02 98.16 428.35 118.82C407.02 141.21 402.39 157.56 401.69 183.86C401.09 206.41 415.45 234.19 428.19 252.81C407.86 239.56 393.58 217.9 388.13 194.31C387.21 194.69 386.33 195.17 385.55 195.77C381.84 198.6 372.31 206.11 370.77 210.51C363.31 231.84 363.7 243.97 372.91 263.82C376.76 272.14 385.7 281.95 403.34 295.53C392.78 292.11 377.45 284.69 367.67 274.45C364.08 279.46 356.22 285.46 365.44 311.8C371.95 330.39 393.16 353.38 414.49 358.71C429.68 362.51 453.71 364.54 469.19 366.92C469.76 367.01 470.35 367.11 470.95 367.22L475.55 362.53C480.87 333.8 432.24 314.81 411.06 304.16C427.28 306.47 442.47 312.9 461.4 322.46C470.33 326.97 478.46 324.6 476.33 311.8C475.26 303.27 452.87 285.15 440.08 269.15C454.87 278.05 477.24 296.34 491.25 300.07C507.24 304.34 532.83 305.4 538.16 281.95C540.05 273.63 521.47 218.61 513.54 191.34C526.91 216.31 551.83 280.34 561.62 285.15C574.62 291.53 611.46 284.56 616 264.89C619.19 251.03 605.74 195.75 598.48 167.33C601.07 168.93 608.53 184.93 617.85 213.56C623.15 229.85 623.84 243.42 631.99 258.49C638.93 271.33 642.58 276.22 673.83 280.69C680.35 280.58 686.88 280.57 693.42 280.65C699.96 280.57 706.49 280.58 713.01 280.69C744.26 276.22 747.91 271.33 754.85 258.49C763 243.42 763.69 229.85 768.99 213.56C778.31 184.93 785.77 168.93 788.36 167.33C781.1 195.75 767.64 251.03 770.84 264.89C775.38 284.56 812.22 291.53 825.22 285.15C835.01 280.34 859.93 216.31 873.3 191.34C865.37 218.61 846.78 273.63 848.67 281.95C854.01 305.4 879.59 304.34 895.59 300.07C909.6 296.34 931.97 278.05 946.76 269.15C933.97 285.15 911.58 303.27 910.51 311.8C908.38 324.6 916.51 326.97 925.44 322.46C944.37 312.9 959.56 306.47 975.78 304.16C954.6 314.81 905.96 333.8 911.29 362.53L915.89 367.22C916.49 367.11 917.08 367.01 917.65 366.92C933.13 364.54 957.16 362.51 972.35 358.71C993.67 353.38 1014.89 330.39 1021.4 311.8C1030.61 285.46 1022.76 279.46 1019.16 274.45Z" />
		<path id="Path 5" class="shp2" d="M609.32 602.56C609.32 594.26 605.63 587.59 598.25 582.53C590.87 577.48 579.68 574.94 564.67 574.94C554.89 574.94 545.31 576.06 535.94 578.3C526.57 580.54 518.4 583.65 511.44 587.63C508.12 589.54 506.03 591.24 505.16 592.73C504.29 594.22 503.85 596.01 503.85 598.08C503.85 599.65 504.25 600.96 505.04 602C505.82 603.03 506.96 603.55 508.46 603.55C510.28 603.55 512.52 602.76 515.17 601.19C520.97 597.7 528.02 594.82 536.31 592.54C544.6 590.26 553.19 589.12 562.06 589.12C571.84 589.12 579.1 590.51 583.82 593.29C588.55 596.07 590.91 599.86 590.91 604.67C590.91 608.48 589.55 611.82 586.81 614.68C584.07 617.54 580.32 619.76 575.55 621.33C570.79 622.91 565.46 623.78 559.57 623.95C556.92 624.03 555.1 624.82 554.1 626.31C553.1 627.8 552.61 629.75 552.61 632.15C552.61 633.82 552.94 635.02 553.6 635.76C554.26 636.51 555.42 636.92 557.08 637.01C564.38 637.26 569.58 638.62 572.69 641.11C575.8 643.6 577.36 646.67 577.36 650.31C577.36 655.54 574.64 659.83 569.21 663.19C563.78 666.54 555.26 668.22 543.65 668.22C541.16 668.22 537.93 668.06 533.95 667.73C534.86 657.69 536.4 647.14 538.55 636.07C540.71 625 542.86 616.24 545.02 609.77C545.52 608.28 545.77 606.95 545.77 605.79C545.77 602.97 543.24 601.56 538.18 601.56C535.36 601.56 533.08 601.98 531.34 602.8C529.6 603.63 528.44 605.08 527.86 607.16C524.54 619.01 521.8 631.31 519.65 644.03C517.49 656.76 516.04 668.93 515.3 680.54C515.13 683.11 515.61 685.05 516.73 686.38C517.84 687.71 519.9 688.37 522.88 688.37C525.87 688.37 528.31 687.79 530.22 686.63C532.13 685.47 533.12 683.73 533.21 681.41C535.69 681.66 539.01 681.78 543.16 681.78C554.26 681.78 563.76 680.47 571.64 677.86C579.51 675.25 585.5 671.54 589.61 666.73C593.71 661.92 595.76 656.24 595.76 649.69C595.76 645.55 594.44 641.88 591.78 638.69C589.13 635.49 585.23 633.19 580.09 631.78C589.63 629.54 596.88 625.88 601.86 620.77C606.83 615.68 609.32 609.6 609.32 602.56Z" />
		<path id="Path 6" fill-rule="evenodd" class="shp2" d="M883.06 627.43C883.06 629.42 881.98 636.51 879.82 648.7C877.91 660.39 876.79 667.31 876.47 669.47C873.4 690.78 869.17 707.65 863.78 720.09C858.39 732.52 851.22 738.74 842.26 738.74C838.03 738.74 834.59 737.44 831.94 734.82C829.28 732.21 827.96 728.79 827.96 724.56C827.96 720.67 828.85 716.69 830.63 712.62C832.41 708.56 835.73 703.9 840.58 698.63C845.43 693.37 852.29 687.33 861.17 680.54L861.54 677.68C862.12 674.61 862.78 670.21 863.53 664.49C861.87 670.46 859.55 675 856.56 678.11C853.58 681.22 850.43 682.78 847.11 682.78C843.38 682.78 840.33 681.05 837.97 677.61C835.61 674.17 834.43 669.88 834.43 664.74C834.43 664.02 834.45 663.33 834.46 662.62C831.62 664.01 828.63 664.74 825.47 664.74C821.08 664.74 817.74 663.62 815.46 661.38C813.18 659.14 812.04 656.12 812.04 652.3C812.04 651.06 812.17 649.82 812.42 648.57C812.58 646.91 812.66 645.79 812.66 645.21C812.66 643.89 812.21 643.22 811.29 643.22C810.05 643.22 808.41 644.61 806.38 647.39C804.35 650.17 802.34 653.84 800.35 658.4C798.36 662.96 796.74 667.77 795.5 672.83C794.59 676.72 793.53 679.35 792.33 680.72C791.13 682.09 789.24 682.78 786.67 682.78C783.52 682.78 781.3 681.12 780.02 677.8C779.59 676.71 779.25 675.38 778.96 673.86C777.04 675.3 774.94 676.71 772.56 678.05C766.96 681.2 760.97 682.78 754.58 682.78C745.88 682.78 739.12 680.41 734.31 675.68C733.44 674.83 732.68 673.9 731.97 672.93C729.78 675.14 727.57 677.08 725.36 678.67C721.54 681.41 717.02 682.78 711.8 682.78C705.42 682.78 700.27 680.95 696.38 677.3C692.48 673.66 690.53 668.8 690.53 662.75C690.53 659.52 692.19 657.2 695.51 655.79C699.16 654.21 701.77 652.53 703.34 650.75C704.92 648.97 705.71 646.79 705.71 644.22C705.71 642.73 705.4 641.61 704.77 640.86C704.15 640.12 703.38 639.74 702.47 639.74C700.23 639.74 697.77 641.36 695.07 644.59C692.38 647.83 689.87 651.99 687.55 657.09C685.23 662.19 683.4 667.44 682.08 672.83C681.16 676.72 680.1 679.35 678.9 680.72C677.7 682.09 675.81 682.78 673.25 682.78C670.67 682.78 668.79 681.84 667.59 679.98C666.69 678.58 666.01 676.63 665.55 674.1C663.93 675.67 662.27 677.12 660.56 678.42C656.75 681.32 653.06 682.78 649.49 682.78C646.76 682.78 644.25 681.84 641.97 679.98C639.69 678.11 637.97 675.56 636.81 672.33C632.49 679.29 627.06 682.78 620.51 682.78C615.37 682.78 611.27 680.91 608.2 677.18C605.13 673.45 603.6 668.56 603.6 662.5C603.6 655.87 605.13 649.59 608.2 643.66C611.27 637.73 615.35 632.96 620.45 629.36C625.55 625.75 630.96 623.95 636.68 623.95C638.5 623.95 639.73 624.3 640.35 625C640.97 625.71 641.49 626.97 641.91 628.8C643.65 628.47 645.47 628.3 647.38 628.3C651.44 628.3 653.47 629.75 653.47 632.65C653.47 634.39 652.85 638.54 651.61 645.09C649.7 654.63 648.75 661.26 648.75 664.99C648.75 666.23 649.06 667.23 649.68 667.97C650.3 668.72 651.11 669.09 652.1 669.09C653.68 669.09 655.59 668.08 657.83 666.05C659.58 664.45 661.84 662.05 664.57 658.9C664.55 657.4 664.54 655.84 664.54 654.17C664.54 641.4 665.85 628.09 668.46 614.25C671.07 600.4 674.93 588.77 680.02 579.36C685.12 569.95 691.24 565.24 698.37 565.24C702.18 565.24 705.27 566.88 707.63 570.16C710 573.43 711.18 577.68 711.18 582.91C711.18 591.28 708.73 599.97 703.84 608.96C698.95 617.96 690.99 628.47 679.96 640.49C679.71 644.8 679.59 649.24 679.59 653.8C683.57 643.43 688.13 635.91 693.27 631.22C698.41 626.54 703.22 624.2 707.7 624.2C711.84 624.2 715.18 625.61 717.71 628.43C720.24 631.25 721.5 634.73 721.5 638.87C721.5 643.43 720.34 647.62 718.02 651.43C715.7 655.25 711.72 658.65 706.08 661.63C706.41 663.87 707.43 665.67 709.13 667.04C710.83 668.41 712.88 669.09 715.28 669.09C717.85 669.09 720.34 668.1 722.75 666.11C724.08 665 725.68 663.44 727.48 661.51C727.24 659.85 727.1 658.12 727.1 656.28C727.1 650.56 728.3 645.24 730.7 640.3C733.11 635.37 736.45 631.45 740.72 628.55C744.99 625.65 749.82 624.2 755.21 624.2C760.01 624.2 763.87 625.63 766.77 628.49C769.67 631.35 771.13 635.22 771.13 640.12C771.13 645.84 769.07 650.75 764.97 654.85C760.87 658.96 753.92 662.21 744.14 664.62C746.21 668.43 750.15 670.34 755.95 670.34C759.68 670.34 763.93 669.03 768.7 666.42C772.19 664.51 775.33 662.15 778.13 659.37C778.35 649.51 779.86 640.1 782.69 631.16C783.44 628.76 784.66 626.99 786.36 625.88C788.06 624.76 790.44 624.2 793.51 624.2C795.17 624.2 796.33 624.4 796.99 624.82C797.66 625.23 797.99 626.02 797.99 627.18C797.99 628.51 797.37 631.49 796.12 636.14C795.29 639.45 794.63 642.35 794.13 644.84C793.63 647.33 793.22 650.4 792.89 654.04C795.62 646.91 798.69 641.11 802.09 636.63C805.49 632.15 808.83 628.96 812.1 627.06C815.38 625.15 818.38 624.2 821.12 624.2C826.51 624.2 829.21 626.89 829.21 632.28C829.21 633.36 828.83 635.97 828.09 640.12C827.42 643.43 827.09 645.51 827.09 646.33C827.09 649.24 828.13 650.69 830.2 650.69C831.71 650.69 833.5 649.9 835.57 648.36C835.61 648.13 835.63 647.88 835.67 647.64C836.5 642.46 837.87 636.96 839.77 631.16C840.6 628.67 841.77 626.89 843.26 625.81C844.75 624.74 847.11 624.2 850.35 624.2C852.17 624.2 853.43 624.49 854.14 625.07C854.84 625.65 855.2 626.52 855.2 627.68C855.2 628.34 854.74 630.58 853.83 634.39C853 637.46 852.34 640.24 851.84 642.73C851.17 646.13 850.6 649.38 850.1 652.49C849.6 655.6 849.35 658.15 849.35 660.14C849.35 663.29 850.22 664.86 851.96 664.86C853.21 664.86 854.76 663.62 856.63 661.14C858.49 658.65 860.48 654.88 862.6 649.82C864.71 644.76 866.76 638.54 868.75 631.16C869.42 628.67 870.43 626.89 871.8 625.81C873.17 624.74 875.22 624.2 877.96 624.2C879.86 624.2 881.19 624.44 881.94 624.94C882.68 625.44 883.06 626.27 883.06 627.43ZM742.15 654.92C747.04 653.76 750.89 652.01 753.71 649.69C756.53 647.37 757.94 644.68 757.94 641.61C757.94 640.03 757.51 638.77 756.64 637.82C755.77 636.86 754.58 636.38 753.09 636.38C750.02 636.38 747.43 638.17 745.32 641.73C743.2 645.3 742.15 649.61 742.15 654.67L742.15 654.92ZM638.42 635.51C634.94 635.6 631.73 636.9 628.78 639.43C625.84 641.96 623.5 645.3 621.76 649.44C620.02 653.59 619.15 657.98 619.15 662.63C619.15 665.2 619.66 667.1 620.7 668.35C621.74 669.59 623.17 670.21 624.99 670.21C626.81 670.21 628.56 669.14 630.21 666.98C631.87 664.83 633.07 661.96 633.82 658.4L638.42 635.51ZM681.33 624.94C686.47 618.89 690.72 612.3 694.08 605.17C697.44 598.04 699.11 591.57 699.11 585.77C699.11 583.11 698.82 581.08 698.24 579.67C697.66 578.26 696.83 577.56 695.76 577.56C694.26 577.56 692.6 579.69 690.78 583.96C688.96 588.23 687.19 593.99 685.5 601.25C683.8 608.51 682.41 616.4 681.33 624.94ZM858.31 695.46C851.92 700.85 847.3 705.76 844.44 710.2C841.58 714.63 840.15 718.51 840.15 721.83C840.15 723.23 840.42 724.4 840.96 725.31C841.49 726.22 842.39 726.68 843.63 726.68C845.7 726.68 848.02 724.27 850.6 719.46C853.16 714.65 855.73 706.65 858.31 695.46ZM582.7 706.48C582.7 706.48 597.87 703.66 620.84 700.8C626.58 700.07 632.81 699.33 639.41 698.6C646 697.86 652.98 697.25 660.2 696.64C674.65 695.4 690.12 694.64 705.65 694.34C713.42 694.2 721.21 694.05 728.91 694.07C736.61 694.06 744.21 694.34 751.57 695.1C758.91 695.94 766 697.16 772.65 698.83C779.31 700.45 785.55 702.46 791.18 704.79C796.82 707.09 801.84 709.73 806.02 712.57C810.21 715.39 813.56 718.38 815.93 721.18C818.36 723.92 819.7 726.54 820.55 728.24C821.29 730.05 821.6 731 821.6 731L820.16 731.83C820.16 731.83 819.47 731.18 818.19 729.96C816.8 728.86 814.9 727.24 812.09 725.72C809.33 724.19 805.84 722.61 801.66 721.23C797.47 719.85 792.63 718.61 787.25 717.51C781.87 716.42 775.95 715.48 769.63 714.65C763.31 713.85 756.6 713.05 749.62 712.27C742.61 711.39 735.37 710.49 728 709.58C720.6 708.7 713.02 708.03 705.42 707.6C690.21 706.76 674.93 706.53 660.57 706.38C653.39 706.32 646.45 706.4 639.86 706.42C633.27 706.46 627.04 706.56 621.28 706.69C609.77 706.93 600.18 707.39 593.45 707.63C586.73 707.95 582.89 708.13 582.89 708.13L582.7 706.48Z" />
	</g>
</svg>